<svg width="130" height="17" viewBox="0 0 130 17" fill="none" xmlns="http://www.w3.org/2000/svg">
<g clip-path="url(#clip0_103139_536)">
<path d="M9 0L11.1 6.5H18L12.4 10.5L14.6 17L9 13L3.4 17L5.6 10.5L0 6.5H6.9L9 0Z" fill="#83B3D3"/>
</g>
<g clip-path="url(#clip1_103139_536)">
<path d="M37 0L39.1 6.5H46L40.4 10.5L42.6 17L37 13L31.4 17L33.6 10.5L28 6.5H34.9L37 0Z" fill="#83B3D3"/>
</g>
<g clip-path="url(#clip2_103139_536)">
<path d="M65 0L67.1 6.5H74L68.4 10.5L70.6 17L65 13L59.4 17L61.6 10.5L56 6.5H62.9L65 0Z" fill="#83B3D3"/>
</g>
<g clip-path="url(#clip3_103139_536)">
<path d="M121 0L123.1 6.5H130L124.4 10.5L126.6 17L121 13L115.4 17L117.6 10.5L112 6.5H118.9L121 0Z" fill="#83B3D3"/>
</g>
<g clip-path="url(#clip4_103139_536)">
<path d="M93 0L95.1 6.5H102L96.4 10.5L98.6 17L93 13L87.4 17L89.6 10.5L84 6.5H90.9L93 0Z" fill="#83B3D3"/>
</g>
<defs>
<clipPath id="clip0_103139_536">
<rect width="18" height="17" fill="white"/>
</clipPath>
<clipPath id="clip1_103139_536">
<rect width="18" height="17" fill="white" transform="translate(28)"/>
</clipPath>
<clipPath id="clip2_103139_536">
<rect width="18" height="17" fill="white" transform="translate(56)"/>
</clipPath>
<clipPath id="clip3_103139_536">
<rect width="18" height="17" fill="white" transform="translate(112)"/>
</clipPath>
<clipPath id="clip4_103139_536">
<rect width="18" height="17" fill="white" transform="translate(84)"/>
</clipPath>
</defs>
</svg>
