<svg width="74" height="17" viewBox="0 0 74 17" fill="none" xmlns="http://www.w3.org/2000/svg">
<g clip-path="url(#clip0_103139_523)">
<path d="M9 0L11.1 6.5H18L12.4 10.5L14.6 17L9 13L3.4 17L5.6 10.5L0 6.5H6.9L9 0Z" fill="#83B3D3"/>
</g>
<g clip-path="url(#clip1_103139_523)">
<path d="M37 0L39.1 6.5H46L40.4 10.5L42.6 17L37 13L31.4 17L33.6 10.5L28 6.5H34.9L37 0Z" fill="#83B3D3"/>
</g>
<g clip-path="url(#clip2_103139_523)">
<path d="M65 0L67.1 6.5H74L68.4 10.5L70.6 17L65 13L59.4 17L61.6 10.5L56 6.5H62.9L65 0Z" fill="#83B3D3"/>
</g>
<defs>
<clipPath id="clip0_103139_523">
<rect width="18" height="17" fill="white"/>
</clipPath>
<clipPath id="clip1_103139_523">
<rect width="18" height="17" fill="white" transform="translate(28)"/>
</clipPath>
<clipPath id="clip2_103139_523">
<rect width="18" height="17" fill="white" transform="translate(56)"/>
</clipPath>
</defs>
</svg>
